<?xml version="1.0" standalone="no"?>
<!DOCTYPE svg PUBLIC "-//W3C//DTD SVG 20010904//EN"
 "http://www.w3.org/TR/2001/REC-SVG-20010904/DTD/svg10.dtd">
<svg version="1.0" xmlns="http://www.w3.org/2000/svg"
 width="180.000000pt" height="180.000000pt" viewBox="0 0 180.000000 180.000000"
 preserveAspectRatio="xMidYMid meet">
<metadata>
Created by potrace 1.16, written by Peter Selinger 2001-2019
</metadata>
<g transform="translate(0.000000,180.000000) scale(0.100000,-0.100000)"
fill="#000000" stroke="none">
<path d="M0 900 l0 -900 900 0 900 0 0 900 0 900 -900 0 -900 0 0 -900z m612
379 c25 -13 50 -72 41 -96 -23 -65 -102 -85 -148 -38 -67 66 22 179 107 134z
m698 -69 l0 -80 -230 0 -230 0 0 80 0 80 230 0 230 0 0 -80z m-649 -355 c16
-131 98 -217 218 -232 133 -16 250 88 268 237 l6 50 78 0 c90 0 90 1 68 -102
-28 -133 -100 -228 -217 -285 -73 -36 -80 -38 -176 -38 -121 1 -188 23 -260
86 -87 77 -146 195 -146 294 l0 46 78 -3 77 -3 6 -50z"/>
</g>
</svg>
